# xmcd
#
# Track frame offsets:
#	150
#	15505
#	33202
#	47750
#	60665
#	80150
#	96702
#	109900
#	122390
#	137052
#	156082
#	179545
# Disc length: 2609 seconds
# Revision: 10
# Processed by: cddbd v1.5.1PL2 Copyright (c) Steve Scherf et al.
#
# Submitted via: libkcddb 0.31
#
DISCID=9f0a2f0c
DTITLE=Royal Crown Revue - The Contender
DYEAR=1998
DGENRE=Jazz
TTITLE0=The Contender
TTITLE1=Walkin' Like Brando
TTITLE2=Zip Gun Bop (Reloaded)
TTITLE3=Big Boss Lee
TTITLE4=Friday the 13th
TTITLE5=Stormy Weather
TTITLE6=Morning Light
TTITLE7=Salt Peanuts
TTITLE8=Work Baby Work
TTITLE9=Everyone Knows You're Crazy
TTITLE10=Port-Au-Prince (Travels With Bettie Page)
TTITLE11=Deadly Nightcall
EXTD=
EXTT0=
EXTT1=
EXTT2=
EXTT3=
EXTT4=
EXTT5=
EXTT6=
EXTT7=
EXTT8=
EXTT9=
EXTT10=
EXTT11=
PLAYORDER=
